<svg xmlns="http://www.w3.org/2000/svg" viewBox="0 0 32 32">
  <rect width="32" height="32" fill="#000"/>
  <g transform="translate(2.171, 30.000) scale(0.042813, -0.042813)">
    <path fill="#fff" d="M222 602Q161 602 118.5 561.5Q76 521 51 447Q50 444 45.0 444.5Q40 445 40 448Q42 462 44.0 487.5Q46 513 48.5 543.0Q51 573 52.5 601.0Q54 629 54 647Q54 652 59.5 652.0Q65 652 65 647Q65 637 75.5 632.5Q86 628 99.5 626.5Q113 625 122 625Q208 622 323 622Q393 622 435.0 623.5Q477 625 516 625Q552 625 570.5 629.5Q589 634 594 650Q595 654 600.5 654.0Q606 654 606 650Q604 634 602.5 605.5Q601 577 599.5 545.5Q598 514 597.0 487.5Q596 461 596 448Q596 445 591.0 445.0Q586 445 585 448Q570 527 528.5 564.5Q487 602 428 602Q408 602 397.5 596.5Q387 591 383.5 578.0Q380 565 380 542V81Q380 52 386.0 37.0Q392 22 409.5 17.0Q427 12 463 12Q466 12 466.0 6.0Q466 0 463 0Q435 0 400.0 1.0Q365 2 323 2Q283 2 248.0 1.0Q213 0 184 0Q181 0 181.0 6.0Q181 12 184 12Q219 12 237.0 17.0Q255 22 261.5 37.0Q268 52 268 81V544Q268 566 264.5 578.5Q261 591 251.0 596.5Q241 602 222 602Z"/>
  </g>
</svg>
